<svg height="56" viewBox="0 0 396 56" width="396" xmlns="http://www.w3.org/2000/svg" xmlns:xlink="http://www.w3.org/1999/xlink"><title>rk</title><defs><path d="M0 0h396v55.1H0z" id="a"></path><path d="M0 0h396v55.1H0z" id="c"></path><path d="M0 0h396v55.1H0z" id="e"></path><path d="M0 0h396v55.1H0z" id="g"></path><path d="M0 0h396v55.1H0z" id="i"></path><path d="M0 0h396v55.1H0z" id="k"></path><path d="M0 0h396v55.1H0z" id="m"></path><path d="M0 0h396v55.1H0z" id="o"></path><path d="M0 0h396v55.1H0z" id="q"></path><path d="M0 0h396v55.1H0z" id="s"></path><path d="M0 0h396v55.1H0z" id="u"></path><path d="M0 0h396v55.1H0z" id="w"></path><path d="M0 0h396v55.1H0z" id="y"></path><path d="M0 0h396v55.1H0z" id="A"></path></defs><g fill="none" fill-rule="evenodd"><mask fill="#fff" id="b"><use href="#a"></use></mask><path d="M0 .9h11.5c10.9 0 12 2.9 12 14.7 0 7.2-1 10.4-7.1 12.2v.1c5.1.5 6.8 3.1 6.8 8.2v11.7c0 1.9 0 4.6.4 6.9h-7c-.7-1.3-.9-2.7-.9-4.8V37.7c0-5.1-.9-6.4-5.8-6.4H7.5v23.4H0V.9zM7.5 25h1.9c5.9 0 6.7-1.1 6.7-9.2 0-8-.4-8.7-5.1-8.7H7.5V25z" fill="currentColor" fill-rule="nonzero" mask="url(#b)"></path><mask fill="#fff" id="d"><use href="#c"></use></mask><path d="M26.6 14.6C26.6 7.1 29.1.4 39.2.4c9.6 0 12.7 5 12.7 13.3V41c0 7.5-2.5 14.2-12.7 14.2-9.5 0-12.6-5-12.6-13.3V14.6zM34 42.2c0 4.6 2.1 7.1 5.1 7.1 3.1 0 5.2-2.5 5.2-7.1V14c0-5.3-1.8-7.7-5.2-7.7-3.3 0-5.1 2.4-5.1 7.7v28.2z" fill="currentColor" fill-rule="nonzero" mask="url(#d)"></path><mask fill="#fff" id="f"><use href="#e"></use></mask><path d="M63.5.9h8.6l11 53.8h-7.5L73.2 41H61.5L59 54.7h-7.5L63.5.9zm-.8 33.8h9.5L67.5 8.8h-.1l-4.7 25.9z" fill="currentColor" fill-rule="nonzero" mask="url(#f)"></path><mask fill="#fff" id="h"><use href="#g"></use></mask><path d="M84.5.9h12c12.1 0 13 4 13 19.7v16c0 13.8-2.5 18.1-14.2 18.1H84.5V.9zm7.4 47.5h3.6c5.5 0 6.6-2.9 6.6-12.1V17.8c0-8-.8-10.7-7.2-10.7h-3v41.3z" fill="currentColor" fill-rule="nonzero" mask="url(#h)"></path><mask fill="#fff" id="j"><use href="#i"></use></mask><path d="M113.2 39.1h7.4v4.4c0 3.6 1.3 5.8 4.3 5.8 3.9 0 4.9-2.7 4.9-6.2 0-4.5-.2-6-8-13.7-4.8-4.8-8.7-9.1-8.7-16.4 0-8.8 4.1-12.6 12.2-12.6 4 0 6.9 1.3 8.7 3 1.3 1.2 2.2 3.1 2.2 6.9v5.1h-7v-4.2c0-3.1-1.3-4.8-4.2-4.8-3.1 0-4.5 1.7-4.5 5.9 0 3.7.7 5.9 7.6 13 7.3 7.6 8.6 10.2 8.6 16.7 0 8.4-3.3 13.3-12.1 13.3-6.9 0-11.5-2.9-11.5-9.6v-6.6h.1z" fill="currentColor" fill-rule="nonzero" mask="url(#j)"></path><g><mask fill="#fff" id="l"><use href="#k"></use></mask><path d="M161.5 38.3h.1V27h6.3v10.8c0 4.4-.7 7.8-1.7 9.2l3.3 7.2H162l-.7-1.6c-2 1.3-5.1 2-7.5 2-8.6 0-10.5-5-10.5-13.8 0-6.4.4-13.1 6-15.9-2.6-4.8-4-8.9-4-13.3 0-7.4 3.9-11.2 9.5-11.2 6.8 0 9.5 3.9 9.5 10.2 0 6.4-2.8 10.7-7.7 15.3l4.9 12.4zm-9.9-7.7c-1 1.5-1.3 4-1.3 9.8 0 6.1.9 8.9 4 8.9 1.8 0 2.9-.5 4.4-2.2l-7.1-16.5zm0-19.3c0 2.8.4 5.3 2.5 9.8 3.3-4.1 4-6.6 4-10.2 0-3.3-1-5.1-3.2-5.1-2.6 0-3.3 2-3.3 5.5z" fill="currentColor" fill-rule="nonzero" mask="url(#l)"></path></g><g><mask fill="#fff" id="n"><use href="#m"></use></mask><path d="M177.3.4h7.5V25h.1L196.7.4h7.5l-12.6 25.3L205 54.2h-8.3l-11.8-26.9h-.1v26.9h-7.5z" fill="currentColor" fill-rule="nonzero" mask="url(#n)"></path></g><g><mask fill="#fff" id="p"><use href="#o"></use></mask><path d="M206.7.4h7.5v53.8h-7.5z" fill="currentColor" fill-rule="nonzero" mask="url(#p)"></path></g><g><mask fill="#fff" id="r"><use href="#q"></use></mask><path d="M218.7.4H229l8.8 44.7h.1V.4h7v53.8h-10.7l-8.8-45.9h-.2v45.9h-6.5z" fill="currentColor" fill-rule="nonzero" mask="url(#r)"></path></g><g><mask fill="#fff" id="t"><use href="#s"></use></mask><path d="M265.5 14.7v-2.8c0-3.8-1.9-6.1-4.8-6.1-3.4 0-5.1 3.1-5.1 8.9v27.1c0 4.3 2.1 7.1 5.1 7.1 2.1 0 3.8-.3 4.8-.5V32.6h-4.9v-6.3H273v27c-2.9.7-8 1.3-12.3 1.3-9.5 0-12.5-5-12.5-13.3V14.2c0-10.1 3.1-14.2 12.7-14.2 8 0 12.1 2.9 12.1 9.8v4.9h-7.5z" fill="currentColor" fill-rule="nonzero" mask="url(#t)"></path></g><g><mask fill="#fff" id="v"><use href="#u"></use></mask><path d="M276.3.4h12c12.1 0 13 4 13 19.7v16c0 13.8-2.5 18.1-14.2 18.1h-10.8V.4zm7.5 47.6h3.6c5.5 0 6.6-2.9 6.6-12.1V17.4c0-8-.8-10.7-7.2-10.7h-3V48z" fill="currentColor" fill-rule="nonzero" mask="url(#v)"></path></g><g><mask fill="#fff" id="x"><use href="#w"></use></mask><path d="M304.2 14.2c0-7.5 2.5-14.2 12.6-14.2 9.6 0 12.7 5 12.7 13.3v27.2c0 7.5-2.5 14.2-12.7 14.2-9.5 0-12.6-5-12.6-13.3V14.2zm7.5 27.6c0 4.6 2.1 7.1 5.1 7.1 3.1 0 5.2-2.5 5.2-7.1V13.6c0-5.3-1.8-7.7-5.2-7.7-3.4 0-5.1 2.5-5.1 7.7v28.2z" fill="currentColor" fill-rule="nonzero" mask="url(#x)"></path></g><g><mask fill="#fff" id="z"><use href="#y"></use></mask><path d="M332.5.4h11.9l6.8 41h.2l6.8-41h11.6v53.8h-7V5.8h-.2L355 54.2h-7.4l-8.4-48.4h-.1v48.4h-6.6z" fill="currentColor" fill-rule="nonzero" mask="url(#z)"></path></g><g><mask fill="#fff" id="B"><use href="#A"></use></mask><path d="M372.3 38.7h7.5v4.4c0 3.6 1.3 5.8 4.3 5.8 3.9 0 4.9-2.7 4.9-6.2 0-4.5-.2-6-8-13.7-4.8-4.8-8.7-9.1-8.7-16.4 0-8.8 4.1-12.6 12.2-12.6 4 0 6.9 1.3 8.7 3 1.3 1.2 2.2 3.1 2.2 6.9V15h-7v-4.2c0-3.1-1.3-4.8-4.2-4.8-3.1 0-4.5 1.7-4.5 5.9 0 3.7.7 5.9 7.6 13 7.3 7.6 8.6 10.2 8.6 16.7 0 8.4-3.3 13.3-12.1 13.3-6.9 0-11.5-2.9-11.5-9.6v-6.6z" fill="currentColor" fill-rule="nonzero" mask="url(#B)"></path></g></g></svg>